<svg xmlns="http://www.w3.org/2000/svg" xmlns:xlink="http://www.w3.org/1999/xlink" version="1.1" x="0px" y="0px" viewBox="0 0 96 120" style="enable-background:new 0 0 96 96;" xml:space="preserve"><g><g><path d="M9.5,70.7c-1.6,0.2-2.8,1.6-2.7,3.3c0.2,1.5,1.5,2.7,3,2.7c0.1,0,0.2,0,0.3,0c2-0.2,47.1-5.4,70.8-46.7l2.4,12    c0.3,1.4,1.5,2.4,2.9,2.4c0.2,0,0.4,0,0.6-0.1c1.6-0.3,2.7-1.9,2.3-3.5l-3.9-19c-0.3-1.6-1.9-2.7-3.5-2.3l-19,3.9    c-1.6,0.3-2.7,1.9-2.3,3.5s1.9,2.7,3.5,2.3l11.8-2.4C53.6,65.6,9.9,70.6,9.5,70.7z"/></g></g><text x="0" y="111" fill="#000000" font-size="5px" font-weight="bold" font-family="'Helvetica Neue', Helvetica, Arial-Unicode, Arial, Sans-serif">Created by Shastry</text><text x="0" y="116" fill="#000000" font-size="5px" font-weight="bold" font-family="'Helvetica Neue', Helvetica, Arial-Unicode, Arial, Sans-serif">from the Noun Project</text></svg>